<?xml version="1.0" encoding="UTF-8" ?>
<!DOCTYPE svg PUBLIC "-//W3C//DTD SVG 1.1//EN" "http://www.w3.org/Graphics/SVG/1.1/DTD/svg11.dtd">
<svg width="1715pt" height="86pt" viewBox="0 0 1715 86" version="1.1" xmlns="http://www.w3.org/2000/svg">
<g id="#ffffffff">
<path fill="#ffffff" opacity="1.00" d=" M 0.00 0.00 L 1715.00 0.00 L 1715.00 73.02 C 1621.37 56.03 1526.82 44.54 1432.06 36.10 C 1245.48 19.76 1058.14 15.19 870.96 11.63 C 819.98 10.77 768.99 9.47 717.99 10.28 C 600.76 11.96 483.70 19.82 367.00 30.70 C 324.00 34.65 281.09 39.50 238.08 43.28 C 158.46 50.78 78.92 59.72 0.00 72.75 L 0.00 0.00 Z" />
</g>
<g id="#1f1e2bff">
<path fill="#1f1e2b" opacity="1.00" d=" M 367.00 30.70 C 483.70 19.82 600.76 11.96 717.99 10.28 C 768.99 9.47 819.98 10.77 870.96 11.63 C 1058.14 15.19 1245.48 19.76 1432.06 36.10 C 1526.82 44.54 1621.37 56.03 1715.00 73.02 L 1715.00 86.00 L 0.00 86.00 L 0.00 72.75 C 78.92 59.72 158.46 50.78 238.08 43.28 C 281.09 39.50 324.00 34.65 367.00 30.70 Z" />
</g>
</svg>
