<?xml version="1.0" encoding="UTF-8" ?>
<!DOCTYPE svg PUBLIC "-//W3C//DTD SVG 1.1//EN" "http://www.w3.org/Graphics/SVG/1.1/DTD/svg11.dtd">
<svg width="359pt" height="295pt" viewBox="0 0 359 295" version="1.1" xmlns="http://www.w3.org/2000/svg">
<g id="#ffffffff">
<path fill="#ffffff" opacity="1.00" d=" M 115.46 8.70 C 118.58 6.63 123.12 9.30 123.01 12.98 C 123.15 16.65 118.65 19.35 115.51 17.34 C 112.25 15.63 112.22 10.44 115.46 8.70 Z" />
<path fill="#ffffff" opacity="1.00" d=" M 117.00 26.00 C 146.00 26.00 174.99 26.00 203.99 26.00 C 222.83 25.53 241.92 27.24 259.88 33.22 C 261.66 33.68 263.40 34.31 265.13 34.93 C 266.11 35.28 267.10 35.62 268.09 35.95 C 297.91 47.06 324.44 68.03 340.15 95.93 C 340.43 96.45 340.99 97.50 341.28 98.03 C 342.84 100.99 344.37 103.97 345.65 107.08 C 346.22 108.35 346.76 109.64 347.36 110.91 C 347.49 111.43 347.77 112.45 347.91 112.97 C 349.28 115.87 349.88 119.06 351.13 122.01 C 351.35 123.34 351.55 124.67 351.79 126.01 C 353.11 129.50 353.40 133.30 353.96 136.97 C 355.40 146.87 355.39 157.08 353.96 166.97 C 353.52 172.06 352.08 176.98 351.08 181.97 C 349.96 184.97 349.25 188.11 347.91 191.03 C 347.77 191.54 347.50 192.57 347.36 193.09 C 346.77 194.38 346.20 195.69 345.65 197.00 C 344.07 200.82 342.07 204.43 340.16 208.08 C 324.43 235.98 297.91 256.93 268.09 268.06 C 267.08 268.38 266.09 268.71 265.09 269.03 C 264.08 269.42 263.07 269.83 262.07 270.25 C 261.52 270.37 260.43 270.61 259.88 270.73 C 243.87 276.11 226.86 278.16 210.01 278.00 C 179.01 278.00 148.00 278.00 117.00 278.00 C 117.00 276.33 117.00 274.66 117.00 273.00 C 149.04 272.98 181.07 273.04 213.11 272.97 C 218.39 272.42 223.80 273.10 228.99 271.96 C 231.48 271.57 233.99 271.48 236.51 271.42 L 236.48 270.79 C 238.35 270.65 240.21 270.46 242.07 270.20 C 243.66 269.54 245.38 269.39 247.06 269.11 C 248.36 268.65 249.72 268.38 251.08 268.10 C 261.30 265.20 271.52 261.76 280.86 256.71 C 307.12 243.40 329.35 221.33 340.79 194.00 C 341.31 192.70 341.83 191.39 342.39 190.10 C 343.58 186.41 345.01 182.79 345.75 178.98 C 346.89 175.74 347.37 172.28 347.89 168.89 C 349.81 157.75 349.80 146.23 347.92 135.09 C 347.41 131.68 346.80 128.28 345.76 125.00 C 345.06 121.13 343.51 117.51 342.34 113.78 C 341.80 112.54 341.31 111.29 340.79 110.04 C 339.20 106.19 337.35 102.45 335.36 98.80 C 323.20 76.97 304.10 59.40 282.04 47.87 C 272.26 42.63 261.77 38.86 251.09 35.91 C 249.72 35.63 248.35 35.35 247.03 34.89 C 245.36 34.60 243.66 34.45 242.08 33.82 C 240.06 33.53 238.00 33.42 236.07 32.76 C 234.03 32.51 231.98 32.36 229.94 32.16 C 224.44 30.87 218.69 31.60 213.09 31.03 C 181.06 30.96 149.03 31.02 117.00 31.00 C 117.00 29.33 117.00 27.67 117.00 26.00 Z" />
<path fill="#ffffff" opacity="1.00" d=" M 20.36 37.00 C 32.50 37.00 44.64 37.00 56.77 37.00 C 66.47 64.64 76.18 92.27 85.89 119.91 C 96.27 148.50 105.53 177.50 113.14 206.96 C 113.22 155.68 113.00 104.40 113.02 53.11 C 115.60 53.07 118.18 53.04 120.77 52.99 C 120.75 96.34 120.89 139.69 120.89 183.03 C 121.11 190.77 120.63 198.53 121.24 206.26 C 129.19 174.04 141.16 143.01 152.57 111.90 C 161.76 86.93 170.94 61.96 180.12 37.00 C 192.26 37.02 204.40 36.97 216.54 37.03 C 220.88 107.42 225.28 177.81 229.67 248.20 C 246.09 248.17 262.51 248.07 278.93 248.00 C 278.73 251.27 279.58 254.69 278.43 257.84 C 252.98 257.50 227.51 258.16 202.05 258.00 C 200.80 233.31 199.55 208.62 198.30 183.94 C 196.50 145.30 193.29 106.69 193.55 67.98 C 193.44 67.27 193.22 65.84 193.10 65.13 C 192.82 65.86 192.25 67.32 191.96 68.05 C 179.31 110.07 164.35 151.34 149.37 192.57 C 141.64 213.96 133.90 235.36 126.16 256.76 C 118.62 256.74 111.07 256.76 103.52 256.75 C 94.68 230.16 85.83 203.58 77.01 176.99 C 63.75 177.01 50.50 176.99 37.25 177.00 C 35.59 204.00 33.89 231.00 32.22 258.01 C 23.14 257.99 14.06 258.00 4.98 258.00 C 10.11 184.33 15.25 110.67 20.36 37.00 M 42.48 65.35 C 40.93 100.57 39.89 135.82 37.63 171.00 C 50.09 171.00 62.55 171.00 75.01 171.00 C 63.88 137.85 52.43 104.76 44.20 70.74 C 43.77 68.90 43.31 67.06 42.48 65.35 Z" />
</g>
</svg>
