<svg width="16" height="14" viewBox="0 0 16 14" fill="none" xmlns="http://www.w3.org/2000/svg">
<path d="M0 6.1875L5.6 0.5L11.2 6.1875L5.6 11.875L0 6.1875ZM6.2 6.1875C6.2 6.02588 6.13679 5.87089 6.02426 5.75661C5.91174 5.64233 5.75913 5.57812 5.6 5.57812C5.44087 5.57812 5.28826 5.64233 5.17574 5.75661C5.06321 5.87089 5 6.02588 5 6.1875C5 6.34912 5.06321 6.50411 5.17574 6.61839C5.28826 6.73267 5.44087 6.79688 5.6 6.79688C5.75913 6.79688 5.91174 6.73267 6.02426 6.61839C6.13679 6.50411 6.2 6.34912 6.2 6.1875ZM2.4 6.79688C2.55913 6.79688 2.71174 6.73267 2.82426 6.61839C2.93679 6.50411 3 6.34912 3 6.1875C3 6.02588 2.93679 5.87089 2.82426 5.75661C2.71174 5.64233 2.55913 5.57812 2.4 5.57812C2.24087 5.57812 2.08826 5.64233 1.97574 5.75661C1.86321 5.87089 1.8 6.02588 1.8 6.1875C1.8 6.34912 1.86321 6.50411 1.97574 6.61839C2.08826 6.73267 2.24087 6.79688 2.4 6.79688ZM5.6 8.82812C5.44087 8.82812 5.28826 8.89233 5.17574 9.00661C5.06321 9.12089 5 9.27588 5 9.4375C5 9.59912 5.06321 9.75411 5.17574 9.86839C5.28826 9.98267 5.44087 10.0469 5.6 10.0469C5.75913 10.0469 5.91174 9.98267 6.02426 9.86839C6.13679 9.75411 6.2 9.59912 6.2 9.4375C6.2 9.27588 6.13679 9.12089 6.02426 9.00661C5.91174 8.89233 5.75913 8.82812 5.6 8.82812ZM8.8 6.79688C8.95913 6.79688 9.11174 6.73267 9.22426 6.61839C9.33679 6.50411 9.4 6.34912 9.4 6.1875C9.4 6.02588 9.33679 5.87089 9.22426 5.75661C9.11174 5.64233 8.95913 5.57812 8.8 5.57812C8.64087 5.57812 8.48826 5.64233 8.37574 5.75661C8.26321 5.87089 8.2 6.02588 8.2 6.1875C8.2 6.34912 8.26321 6.50411 8.37574 6.61839C8.48826 6.73267 8.64087 6.79688 8.8 6.79688ZM5.6 2.32812C5.44087 2.32812 5.28826 2.39233 5.17574 2.50661C5.06321 2.62089 5 2.77588 5 2.9375C5 3.09912 5.06321 3.25411 5.17574 3.36839C5.28826 3.48267 5.44087 3.54688 5.6 3.54688C5.75913 3.54688 5.91174 3.48267 6.02426 3.36839C6.13679 3.25411 6.2 3.09912 6.2 2.9375C6.2 2.77588 6.13679 2.62089 6.02426 2.50661C5.91174 2.39233 5.75913 2.32812 5.6 2.32812ZM8 10.5877L11.765 6.76133L12.3325 6.1875L11.7675 5.61367L11.5325 5.375H16V13.5H8V10.5877ZM12.6 9.4375C12.6 9.27588 12.5368 9.12089 12.4243 9.00661C12.3117 8.89233 12.1591 8.82812 12 8.82812C11.8409 8.82812 11.6883 8.89233 11.5757 9.00661C11.4632 9.12089 11.4 9.27588 11.4 9.4375C11.4 9.59912 11.4632 9.75411 11.5757 9.86839C11.6883 9.98267 11.8409 10.0469 12 10.0469C12.1591 10.0469 12.3117 9.98267 12.4243 9.86839C12.5368 9.75411 12.6 9.59912 12.6 9.4375Z" fill="#FAF7F5"/>
</svg>
