<svg width="16" height="16" viewBox="0 0 16 16" fill="none" xmlns="http://www.w3.org/2000/svg">
<path fill-rule="evenodd" clip-rule="evenodd" d="M4.37312 5.92728C3.8234 5.92728 3.29619 6.14566 2.90748 6.53437C2.51876 6.92308 2.30039 7.45027 2.30039 8C2.30039 8.54973 2.51876 9.07692 2.90748 9.46566C3.29619 9.85434 3.8234 10.0727 4.37312 10.0727C5.15639 10.0727 5.81946 9.58327 6.35175 8.91789C6.60781 8.59787 6.80352 8.27265 6.93544 8.02527C7.0008 7.90272 7.04893 7.80221 7.07971 7.73495C7.09504 7.70138 7.106 7.6763 7.11246 7.66117L7.11873 7.64609C7.11904 7.64546 7.11923 7.64495 7.1193 7.64476L7.12113 7.6402L7.12582 7.6288C7.12956 7.61975 7.13456 7.60784 7.14077 7.59327C7.15318 7.56414 7.1706 7.52424 7.19308 7.47516C7.23786 7.37712 7.30309 7.24152 7.38884 7.08065C7.55921 6.76126 7.81691 6.33079 8.16537 5.89519C8.84215 5.04919 9.99273 4.02728 11.6277 4.02728C12.6813 4.02728 13.6918 4.44584 14.4368 5.19087C15.1818 5.9359 15.6004 6.94639 15.6004 8C15.6004 9.05368 15.1818 10.0641 14.4368 10.8091C13.6918 11.5542 12.6813 11.9728 11.6277 11.9728C10.5637 11.9728 9.70298 11.5374 9.05046 11.0066L10.0697 9.37579C10.5242 9.80158 11.041 10.0728 11.6277 10.0728C12.1774 10.0728 12.7046 9.85434 13.0933 9.46566C13.482 9.07692 13.7004 8.54973 13.7004 8C13.7004 7.45027 13.482 6.92308 13.0933 6.53438C12.7046 6.14566 12.1774 5.92729 11.6277 5.92729C10.8444 5.92729 10.1813 6.41674 9.64902 7.08211C9.39296 7.4022 9.19726 7.72741 9.06534 7.97479C8.99998 8.09734 8.95185 8.19785 8.92107 8.26511C8.90574 8.29868 8.89478 8.32376 8.88832 8.3389L8.88205 8.35391L8.88136 8.35549L8.87965 8.35986L8.87496 8.37126C8.87122 8.38032 8.86622 8.39222 8.86001 8.40679C8.8476 8.43592 8.83018 8.47576 8.8077 8.52484C8.76292 8.62288 8.69769 8.75854 8.61194 8.91935C8.44157 9.23874 8.18387 9.66921 7.83541 10.1048C7.15863 10.9508 6.00803 11.9727 4.37312 11.9727C3.31949 11.9727 2.309 11.5542 1.56398 10.8091C0.818945 10.0641 0.400391 9.05368 0.400391 8C0.400391 6.94639 0.818945 5.9359 1.56398 5.19087C2.309 4.44584 3.31949 4.02728 4.37312 4.02728C5.4371 4.02728 6.29782 4.46267 6.95032 4.99344L5.9311 6.62421C5.47659 6.19844 4.95978 5.92728 4.37312 5.92728ZM8.88205 8.35391C8.88212 8.35365 8.88243 8.35283 8.00039 8C8.87838 8.35118 8.88218 8.35359 8.88205 8.35391Z" fill="#FAF7F5"/>
</svg>
