<svg width="605" height="151" viewBox="0 0 605 151" fill="none" xmlns="http://www.w3.org/2000/svg">
<path fill-rule="evenodd" clip-rule="evenodd" d="M539.532 0C559.403 0 579.266 4.46448 589.444 13.4263L589.452 13.4345C599.63 22.3881 604.727 35.0909 604.727 51.5346V97.9963C604.727 114.21 599.606 126.732 589.378 135.562C579.134 144.392 559.247 148.816 539.368 148.816H539.351C519.48 148.816 499.577 144.392 489.357 135.562C479.114 126.732 473.901 112.952 474.781 101.466C475.055 97.8339 475.9 94.9137 476.729 92.0517C477.787 88.396 478.817 84.8351 478.596 80.0069C478.268 72.8846 477.17 69.2109 476.13 65.7288C475.033 62.0558 474 58.5958 474 51.5264C474 36.6448 479.147 22.3717 489.448 13.4263C499.733 4.4727 519.661 0 539.532 0ZM567.205 118.222C571.719 113.799 573.98 106.218 573.98 95.4475V95.4393V54.0669C573.98 43.0661 571.727 35.2964 567.205 30.7415C562.684 26.1866 550.171 23.9339 539.335 23.9339C528.499 23.9339 516.11 26.3264 511.473 30.7415C507.488 34.5337 506.823 37.679 506.073 41.2313C505.638 43.2859 505.175 45.4766 504.024 48.0074C502.587 51.1683 500.354 53.7799 498.089 56.4293C493.902 61.326 489.604 66.3518 490.015 75.2136C490.355 82.6156 494.299 87.936 498.281 93.3062C500.279 96.0005 502.286 98.7075 503.852 101.696C505.544 104.92 506.056 107.202 506.505 109.21C507.157 112.118 507.679 114.448 511.473 118.222C516.809 123.533 528.491 124.849 539.335 124.849C550.179 124.849 562.692 122.645 567.205 118.222ZM61.4512 148.002C49.5956 148.002 38.3407 146.172 27.6689 142.512C16.9971 138.851 7.77415 133.183 0 125.489L10.6011 104.771C18.2693 111.256 26.5028 116.125 35.3017 119.359C44.1007 122.611 54.1364 124.21 65.3912 124.21C74.3669 124.21 81.2046 122.593 85.8691 119.359C90.5336 116.107 92.8835 111.434 92.8835 105.304C92.8835 99.7952 90.1625 95.7794 84.7029 93.3273C79.261 90.8574 67.7235 88.121 50.1256 85.1181C33.2345 82.4705 21.3083 78.1882 14.3645 72.2356C7.42078 66.283 3.94008 57.3808 3.94008 45.4756C3.94008 32.6287 8.74592 21.9673 18.3223 13.5093C27.9163 5.06904 41.9274 0.822266 60.3734 0.822266C71.5222 0.822266 82.141 2.65247 92.3004 6.33063C102.424 9.99103 110.428 15.0552 116.294 21.5586L106.948 41.371C99.7565 35.9159 92.2297 31.758 84.3849 28.8972C76.5401 26.0541 68.3596 24.6149 59.861 24.6149C51.9455 24.6149 45.7262 26.0364 41.1677 28.8616C36.6092 31.6869 34.33 36.0581 34.33 41.9751C34.33 47.519 37.1216 51.4993 42.6872 53.9158C48.2528 56.3324 60.02 59.1221 77.9889 62.2495C94.6503 65.128 106.382 69.6236 113.22 75.7538C120.058 81.8664 123.468 90.8752 123.468 102.763C123.468 117.049 117.973 128.154 107.018 136.079C96.0462 144.004 80.8689 147.967 61.4512 147.967V148.002ZM215.429 150.46C236.998 150.46 257.417 145.995 266.924 137.04C276.43 128.085 281.187 114.241 281.187 95.4668V2.46682H250.286V92.9058C250.286 104.605 248.226 112.886 244.105 117.767C239.985 122.648 227.178 125.075 215.413 125.075C203.648 125.075 190.857 122.639 186.72 117.767C182.342 112.228 182.155 107.776 181.931 102.467C181.79 99.1365 181.636 95.4691 180.424 90.9852C178.676 84.5167 175.626 80.2305 172.802 76.2612C169.288 71.3221 166.123 66.8739 166.251 59.3228C166.37 52.4617 168.39 49.9511 171.286 46.352C173.437 43.679 176.072 40.4056 178.769 34.3038C185.098 19.9859 180.539 2.46682 180.539 2.46682H149.638V95.4668C149.638 114.225 154.395 128.085 163.901 137.04C173.432 145.987 193.827 150.46 215.396 150.46H215.429ZM400.867 146.349C400.867 146.349 393.542 138.037 387.598 118.699C385.438 111.666 384.726 105.729 384.07 100.254V100.254C383.221 93.1659 382.464 86.8533 378.777 79.9414C375.776 74.3147 371.169 71.1593 365.927 67.5697C361.618 64.6186 356.88 61.374 352.255 56.2213C343.137 46.0673 339.166 34.3018 339.166 34.3018V146.349H312.431V2.46682H354.894C354.894 2.46682 367.916 22.8241 373.712 35.2473C376.863 41.9978 377.929 48.058 379.004 54.1653C380.17 60.7928 381.347 67.4757 385.206 75.1562C391.697 88.0839 395.77 91.3221 400.577 95.1423C403.021 97.0852 405.654 99.1785 408.892 102.773C414.309 108.792 416.595 114.868 416.595 114.868V2.46682H443.158V146.349H400.876H400.867Z" fill="#FFFFFF"/>
</svg>
