<svg width="8" height="10" viewBox="0 0 8 10" fill="none" xmlns="http://www.w3.org/2000/svg">
<path d="M4 4.57143C4.60621 4.57143 5.18759 4.33061 5.61624 3.90196C6.0449 3.4733 6.28571 2.89192 6.28571 2.28571C6.28571 1.6795 6.0449 1.09812 5.61624 0.66947C5.18759 0.240816 4.60621 0 4 0C3.39379 0 2.81241 0.240816 2.38376 0.66947C1.9551 1.09812 1.71429 1.6795 1.71429 2.28571C1.71429 2.89192 1.9551 3.4733 2.38376 3.90196C2.81241 4.33061 3.39379 4.57143 4 4.57143ZM3.18393 5.42857C1.425 5.42857 0 6.85357 0 8.6125C0 8.90536 0.2375 9.14286 0.530357 9.14286H7.46964C7.7625 9.14286 8 8.90536 8 8.6125C8 6.85357 6.575 5.42857 4.81607 5.42857H3.18393Z" fill="#F3F3EE"/>
</svg>
