<svg width="16" height="16" viewBox="0 0 16 16" fill="none" xmlns="http://www.w3.org/2000/svg">
<path fill-rule="evenodd" clip-rule="evenodd" d="M4.87162 2.33848L4.27671 2.9334H12.7499C13.2745 2.9334 13.6999 3.35873 13.6999 3.8834V8.00006H11.7999V4.8334H4.27671L4.87162 5.42831L3.52812 6.77183L1.31145 4.55515C0.940454 4.18415 0.940454 3.58264 1.31145 3.21164L3.52812 0.99498L4.87162 2.33848ZM4.19987 11.1667V8.00006H2.29987V12.1167C2.29987 12.6414 2.7252 13.0667 3.24987 13.0667H11.723L11.1281 13.6617L12.4716 15.0052L14.6883 12.7885C15.0593 12.4175 15.0593 11.816 14.6883 11.445L12.4716 9.22834L11.1281 10.5718L11.723 11.1667H4.19987ZM8.6332 6.10006C8.6332 5.85156 8.48785 5.62602 8.26156 5.52333C8.03527 5.42064 7.76984 5.45979 7.58282 5.62344L5.68282 7.28591L6.51692 8.2392L7.36654 7.4958V10.5334H8.6332V6.10006Z" fill="#726e6c"/>
</svg>
