<svg width="18" height="18" viewBox="0 0 18 18" fill="none" xmlns="http://www.w3.org/2000/svg">
<path d="M14.5441 7.39707C14.5441 8.97423 14.0322 10.4311 13.1697 11.6131L16.97 15.4169L17.75 16.1935L16.1935 17.75L15.4169 16.9734L11.6131 13.1697C10.4311 14.0356 8.97423 14.5441 7.39707 14.5441C3.449 14.5441 0.25 11.3451 0.25 7.39707C0.25 3.449 3.449 0.25 7.39707 0.25C11.3451 0.25 14.5441 3.449 14.5441 7.39707ZM7.39707 12.345C8.04684 12.345 8.69026 12.2171 9.29057 11.9684C9.89089 11.7197 10.4363 11.3553 10.8958 10.8958C11.3553 10.4363 11.7197 9.89089 11.9684 9.29057C12.2171 8.69026 12.345 8.04684 12.345 7.39707C12.345 6.74729 12.2171 6.10387 11.9684 5.50356C11.7197 4.90324 11.3553 4.35778 10.8958 3.89832C10.4363 3.43886 9.89089 3.0744 9.29057 2.82574C8.69026 2.57708 8.04684 2.4491 7.39707 2.4491C6.74729 2.4491 6.10387 2.57708 5.50356 2.82574C4.90324 3.0744 4.35778 3.43886 3.89832 3.89832C3.43886 4.35778 3.0744 4.90324 2.82574 5.50356C2.57708 6.10387 2.4491 6.74729 2.4491 7.39707C2.4491 8.04684 2.57708 8.69026 2.82574 9.29057C3.0744 9.89089 3.43886 10.4363 3.89832 10.8958C4.35778 11.3553 4.90324 11.7197 5.50356 11.9684C6.10387 12.2171 6.74729 12.345 7.39707 12.345Z" fill="#FAF7F5"/>
</svg>
