<svg width="16" height="17" viewBox="0 0 16 17" fill="none" xmlns="http://www.w3.org/2000/svg">
<path d="M11.5556 10.25H10.6667V7.625H10.2222H9.73611C8.28611 7.625 7.11111 8.78164 7.11111 10.209C7.11111 11.2836 8 12 8 12C8 12 4.44444 10.9254 4.44444 8.0625C4.44444 5.88867 6.23611 4.125 8.44444 4.125H10.6667V1.5H11.5556L16 5.875L11.5556 10.25ZM0 2.375H0.888889H3.55556H4.44444V4.125H3.55556H1.77778V13.75H11.5556V12.875V12H13.3333V12.875V14.625V15.5H12.4444H0.888889H0V14.625V3.25V2.375Z" fill="#ffffff"/>
</svg>
