<svg width="16" height="16" viewBox="0 0 16 16" fill="none" xmlns="http://www.w3.org/2000/svg">
<g clip-path="url(#clip0_2_7)">
<path d="M8.5 13.8844L8.5 15L5.5 15L5.5 13.8844C5.5 12.6938 5.78125 11.5375 6.30625 10.5L1.5 10.5L-5.60272e-07 10.5L-2.98003e-07 7.5L0.5 7.5L0.5 5L1.25 5L1.25 2.75L2 2.75L2 1L3.5 1L7.25 1L7.70313 1L8.08125 1.25313L10.3313 2.75313L11 3.19688L11 4L11 6L11 9L11 9.72188L10.4375 10.1719L10.1906 10.3719C9.12187 11.225 8.50312 12.5188 8.50312 13.8844L8.5 13.8844ZM12 10L12 1L16 1L16 10L12 10Z" fill="#726E6C"/>
</g>
<defs>
<clipPath id="clip0_2_7">
<rect width="16" height="16" fill="white"/>
</clipPath>
</defs>
</svg>
